Coordinates
version=1
nRows=8
nColumns=42
inDegrees=yes

Units are S.I. units (second, meters, Newtons, ...)
If the header above contains a line with 'inDegrees', this indicates whether rotational values are in degrees (yes) or radians (no).

endheader
time	pelvis_tilt	pelvis_list	pelvis_rotation	pelvis_tx	pelvis_ty	pelvis_tz	hip_flexion_r	hip_adduction_r	hip_rotation_r	knee_angle_r	knee_adduction_r	knee_angle_r_beta	ankle_angle_r	subtalar_angle_r	mtp_angle_r	hip_flexion_l	hip_adduction_l	hip_rotation_l	knee_angle_l	knee_adduction_l	knee_angle_l_beta	ankle_angle_l	subtalar_angle_l	mtp_angle_l	lumbar_extension	lumbar_bending	lumbar_rotation	arm_flex_r	arm_add_r	arm_rot_r	elbow_flex_r	pro_sup_r	wrist_flex_r	wrist_dev_r	arm_flex_l	arm_add_l	arm_rot_l	elbow_flex_l	pro_sup_l	wrist_flex_l	wrist_dev_l
      0.95000000	     -0.95330017	      2.22071880	     -5.10050506	     -1.17049993	      0.96316894	      0.32537140	     -5.16311704	     -8.58496151	     -2.81437639	     37.17497312	      4.95045705	      0.64882568	      0.27717339	     13.22110048	     -7.72642177	     16.33710669	      1.85257093	    -17.94853608	     11.14077082	     -1.95504391	      0.19444313	      0.81538535	     18.97053455	     -7.72642177	     -8.65992484	     -4.47194280	      3.32085435	      1.64057007	    -16.01290717	     12.32870449	     35.64758869	     90.00000001	      0.00000000	      0.00000000	     -7.80046694	    -11.87868644	      8.09184499	     27.11808461	     90.00000001	      0.00000000	      0.00000000
      0.96000000	     -1.06141484	      2.38160173	     -4.96781606	     -1.16013397	      0.96442450	      0.32399252	     -3.58729946	     -8.98415974	     -1.99771504	     39.78848635	      5.12206677	      0.69444009	     -0.46658442	     12.55968378	     -7.72241961	     15.47087701	      2.20215768	    -17.96787597	     10.57844556	     -1.82610086	      0.18462870	      1.31572193	     19.45293248	     -7.72241961	     -8.49934446	     -4.64562593	      2.93787760	      1.11000383	    -15.86875169	     12.34942387	     35.43419096	     90.00000001	      0.00000000	      0.00000000	     -7.36619495	    -11.97557968	      8.18421092	     27.39434601	     90.00000001	      0.00000000	      0.00000000
      0.97000000	     -1.12805526	      2.50813684	     -4.81911302	     -1.14992506	      0.96552827	      0.32263300	     -2.05479319	     -9.33258954	     -0.81314432	     42.23970661	      5.62981302	      0.73722196	     -1.11818415	     10.65559830	     -7.71077126	     14.68855378	      2.46438882	    -18.37684749	     10.23100060	     -1.74430435	      0.17856465	      1.71355852	     20.60386092	     -7.71077126	     -8.39232396	     -4.76919268	      2.46292337	      0.79087665	    -15.66150659	     12.41515320	     34.90799812	     90.00000001	      0.00000000	      0.00000000	     -6.91700832	    -12.17759564	      8.75706948	     27.67471293	     90.00000001	      0.00000000	      0.00000000
      0.98000000	     -1.03355657	      2.43282543	     -4.69631954	     -1.13984287	      0.96658370	      0.32154177	     -0.65695063	     -9.40227059	     -0.07890008	     44.56957875	      5.76286151	      0.77788590	     -1.06103997	     10.39500343	     -7.70824727	     13.68469271	      2.44342241	    -18.43357328	      9.90146368	     -1.44074071	      0.17281314	      2.13736131	     20.88931154	     -7.70824727	     -8.49523797	     -4.68936010	      2.00933212	      0.45003148	    -15.54710153	     12.44932136	     34.81256624	     90.00000001	      0.00000000	      0.00000000	     -6.43065728	    -12.30583554	      8.80572441	     27.95917498	     90.00000001	      0.00000000	      0.00000000
      0.99000000	     -1.16579067	      2.64890047	     -4.57909213	     -1.12988240	      0.96720211	      0.32028035	      1.06831908	     -9.80447778	      0.69179797	     46.82533656	      6.02928157	      0.81725630	     -0.75980601	      9.09980758	     -7.69210690	     13.13115904	      2.78785652	    -19.31243811	      9.73396855	     -1.54809240	      0.16988980	      2.86730614	     22.83862343	     -7.69210690	     -8.30378155	     -4.90156352	      1.62265027	      0.07423887	    -15.35826209	     12.71403059	     34.13721873	     90.00000001	      0.00000000	      0.00000000	     -5.95644269	    -12.69144585	      9.88711739	     28.43792393	     90.00000001	      0.00000000	      0.00000000
      1.00000000	     -1.10762548	      2.63876458	     -4.46921217	     -1.12004183	      0.96795188	      0.31925048	      2.58344261	     -9.90418733	      1.03225538	     48.85960567	      5.94180353	      0.85276099	     -0.23286520	      8.86730731	     -7.68918144	     12.25411792	      2.86929312	    -19.35507824	      9.47260831	     -1.37220978	      0.16532820	      3.35955055	     23.12111529	     -7.68918144	     -8.36802924	     -4.87930794	      1.25879005	     -0.35840154	    -15.24479607	     12.76851564	     33.99762589	     90.00000001	      0.00000000	      0.00000000	     -5.35919076	    -12.84095448	      9.96816506	     28.76711376	     90.00000001	      0.00000000	      0.00000000
      1.01000000	     -1.06918321	      2.69039636	     -4.29222417	     -1.11032103	      0.96853625	      0.31810138	      4.13836116	    -10.11490411	      1.06841752	     50.73717961	      5.77601443	      0.88553084	      0.66250097	      9.12021132	     -7.67927919	     11.60157260	      3.02278710	    -19.83724683	      9.52263249	     -1.40112595	      0.16620129	      3.99027856	     24.35585508	     -7.67927919	     -8.40140460	     -4.90039399	      0.79274361	     -0.64018142	    -15.07793988	     12.95761568	     33.48721569	     90.00000001	      0.00000000	      0.00000000	     -4.75217440	    -13.16821448	     10.72861836	     29.16656057	     90.00000001	      0.00000000	      0.00000000
      1.02000000	     -0.98364303	      2.62547623	     -4.09176089	     -1.10074125	      0.96917277	      0.31715625	      5.61455209	    -10.14596522	      1.06457354	     52.35363318	      5.62227839	      0.91374327	      1.45978819	      9.00975237	     -7.67524866	     10.85201483	      3.04171745	    -19.79885022	      9.50640224	     -1.31007999	      0.16591802	      4.56591922	     24.74200549	     -7.67524866	     -8.52780381	     -4.79757695	      0.36515536	     -1.03562753	    -14.94319128	     13.01976319	     33.31020270	     90.00000001	      0.00000000	      0.00000000	     -4.06842068	    -13.40663764	     10.95688590	     29.52242693	     90.00000001	      0.00000000	      0.00000000
